<svg version="1.1" viewBox="0.0 0.0 974.0 423.0" fill="none" stroke="none" stroke-linecap="square" stroke-miterlimit="10" xmlns:xlink="http://www.w3.org/1999/xlink" xmlns="http://www.w3.org/2000/svg"><clipPath id="p.0"><path d="m0 0l974.0 0l0 423.0l-974.0 0l0 -423.0z" clip-rule="nonzero"/></clipPath><g clip-path="url(#p.0)"><path fill="#000000" fill-opacity="0.0" d="m0 0l974.0 0l0 423.0l-974.0 0z" fill-rule="evenodd"/><path fill="#6c757d" d="m380.36993 76.76033l0 0c0 -18.986633 15.414429 -34.378338 34.429047 -34.378338l0 0c9.131165 0 17.888306 3.621994 24.345032 10.069183c6.4566956 6.4471893 10.084015 15.191456 10.084015 24.309155l0 0c0 18.986633 -15.414398 34.378334 -34.429047 34.378334l0 0c-19.014618 0 -34.429047 -15.391701 -34.429047 -34.378334z" fill-rule="evenodd"/><path stroke="#6c757d" stroke-width="1.0" stroke-linejoin="round" stroke-linecap="butt" d="m380.36993 76.76033l0 0c0 -18.986633 15.414429 -34.378338 34.429047 -34.378338l0 0c9.131165 0 17.888306 3.621994 24.345032 10.069183c6.4566956 6.4471893 10.084015 15.191456 10.084015 24.309155l0 0c0 18.986633 -15.414398 34.378334 -34.429047 34.378334l0 0c-19.014618 0 -34.429047 -15.391701 -34.429047 -34.378334z" fill-rule="evenodd"/><path fill="#f8f9fa" d="m408.8446 82.1022l0 1.578125l-8.828125 0q-0.015625 -0.59375 0.1875 -1.140625q0.34375 -0.90625 1.078125 -1.78125q0.75 -0.875 2.15625 -2.015625q2.171875 -1.78125 2.9375 -2.828125q0.765625 -1.046875 0.765625 -1.96875q0 -0.984375 -0.703125 -1.640625q-0.6875 -0.671875 -1.8125 -0.671875q-1.1875 0 -1.90625 0.71875q-0.703125 0.703125 -0.703125 1.953125l-1.6875 -0.171875q0.171875 -1.890625 1.296875 -2.875q1.140625 -0.984375 3.03125 -0.984375q1.921875 0 3.046875 1.0625q1.125 1.0625 1.125 2.640625q0 0.796875 -0.328125 1.578125q-0.328125 0.78125 -1.09375 1.640625q-0.75 0.84375 -2.53125 2.34375q-1.46875 1.234375 -1.890625 1.6875q-0.421875 0.4375 -0.6875 0.875l6.546875 0z" fill-rule="nonzero"/><path fill="#6c757d" d="m581.4402 76.76033l0 0c0 -18.986633 15.414429 -34.378338 34.429016 -34.378338l0 0c9.131165 0 17.888367 3.621994 24.345032 10.069183c6.456726 6.4471893 10.084045 15.191456 10.084045 24.309155l0 0c0 18.986633 -15.414429 34.378334 -34.429077 34.378334l0 0c-19.014587 0 -34.429016 -15.391701 -34.429016 -34.378334z" fill-rule="evenodd"/><path stroke="#6c757d" stroke-width="1.0" stroke-linejoin="round" stroke-linecap="butt" d="m581.4402 76.76033l0 0c0 -18.986633 15.414429 -34.378338 34.429016 -34.378338l0 0c9.131165 0 17.888367 3.621994 24.345032 10.069183c6.456726 6.4471893 10.084045 15.191456 10.084045 24.309155l0 0c0 18.986633 -15.414429 34.378334 -34.429077 34.378334l0 0c-19.014587 0 -34.429016 -15.391701 -34.429016 -34.378334z" fill-rule="evenodd"/><path id="s0" fill="#f8f9fa" d="m601.3055 80.14908l1.640625 -0.21875q0.28125 1.40625 0.953125 2.015625q0.6875 0.609375 1.65625 0.609375q1.15625 0 1.953125 -0.796875q0.796875 -0.796875 0.796875 -1.984375q0 -1.125 -0.734375 -1.859375q-0.734375 -0.734375 -1.875 -0.734375q-0.46875 0 -1.15625 0.171875l0.1875 -1.4375q0.15625 0.015625 0.265625 0.015625q1.046875 0 1.875 -0.546875q0.84375 -0.546875 0.84375 -1.671875q0 -0.90625 -0.609375 -1.5q-0.609375 -0.59375 -1.578125 -0.59375q-0.953125 0 -1.59375 0.609375q-0.640625 0.59375 -0.8125 1.796875l-1.640625 -0.296875q0.296875 -1.640625 1.359375 -2.546875q1.0625 -0.90625 2.65625 -0.90625q1.09375 0 2.0 0.46875q0.921875 0.46875 1.40625 1.28125q0.5 0.8125 0.5 1.71875q0 0.859375 -0.46875 1.578125q-0.46875 0.703125 -1.375 1.125q1.1875 0.28125 1.84375 1.140625q0.65625 0.859375 0.65625 2.15625q0 1.734375 -1.28125 2.953125q-1.265625 1.21875 -3.21875 1.21875q-1.765625 0 -2.921875 -1.046875q-1.15625 -1.046875 -1.328125 -2.71875z" fill-rule="nonzero"/><path fill="#000000" fill-opacity="0.0" d="m8.005596 210.35667l49.742107 0" fill-rule="evenodd"/><path stroke="#6c757d" stroke-width="2.0" stroke-linejoin="round" stroke-linecap="butt" d="m8.005596 210.35667l37.742107 0" fill-rule="evenodd"/><path fill="#6c757d" stroke="#6c757d" stroke-width="2.0" stroke-linecap="butt" d="m45.747704 213.66013l9.076195 -3.3034515l-9.076195 -3.3034668z" fill-rule="evenodd"/><path fill="#6c757d" d="m57.747704 210.35667l0 0c0 -18.986633 15.414406 -34.37834 34.42904 -34.37834l0 0c9.131149 0 17.888313 3.621994 24.345009 10.069183c6.456703 6.4471893 10.084038 15.191452 10.084038 24.309158l0 0c0 18.986633 -15.414406 34.37834 -34.429047 34.37834l0 0c-19.014633 0 -34.42904 -15.391708 -34.42904 -34.37834z" fill-rule="evenodd"/><path stroke="#6c757d" stroke-width="1.0" stroke-linejoin="round" stroke-linecap="butt" d="m57.747704 210.35667l0 0c0 -18.986633 15.414406 -34.37834 34.42904 -34.37834l0 0c9.131149 0 17.888313 3.621994 24.345009 10.069183c6.456703 6.4471893 10.084038 15.191452 10.084038 24.309158l0 0c0 18.986633 -15.414406 34.37834 -34.429047 34.37834l0 0c-19.014633 0 -34.42904 -15.391708 -34.42904 -34.37834z" fill-rule="evenodd"/><path fill="#f8f9fa" d="m77.61298 210.68292q0 -2.359375 0.484375 -3.796875q0.484375 -1.453125 1.4375 -2.234375q0.96875 -0.78125 2.421875 -0.78125q1.078125 0 1.890625 0.4375q0.8125 0.421875 1.328125 1.25q0.53125 0.8125 0.828125 1.984375q0.3125 1.15625 0.3125 3.140625q0 2.359375 -0.484375 3.8125q-0.484375 1.4375 -1.453125 2.234375q-0.953125 0.78125 -2.421875 0.78125q-1.921875 0 -3.03125 -1.390625q-1.3125 -1.671875 -1.3125 -5.4375zm1.671875 0q0 3.296875 0.765625 4.390625q0.78125 1.078125 1.90625 1.078125q1.140625 0 1.90625 -1.09375q0.765625 -1.09375 0.765625 -4.375q0 -3.296875 -0.765625 -4.375q-0.765625 -1.078125 -1.921875 -1.078125q-1.125 0 -1.796875 0.953125q-0.859375 1.21875 -0.859375 4.5z" fill-rule="nonzero"/><path fill="#6c757d" d="m243.59985 210.23047l0 0c0 -19.000626 15.414398 -34.403687 34.429047 -34.403687l0 0c9.131165 0 17.888306 3.6246643 24.345001 10.076599c6.4566956 6.45195 10.084045 15.202667 10.084045 24.327087l0 0c0 19.00064 -15.414398 34.403687 -34.429047 34.403687l0 0c-19.014648 0 -34.429047 -15.403046 -34.429047 -34.403687z" fill-rule="evenodd"/><path stroke="#6c757d" stroke-width="1.0" stroke-linejoin="round" stroke-linecap="butt" d="m243.59985 210.23047l0 0c0 -19.000626 15.414398 -34.403687 34.429047 -34.403687l0 0c9.131165 0 17.888306 3.6246643 24.345001 10.076599c6.4566956 6.45195 10.084045 15.202667 10.084045 24.327087l0 0c0 19.00064 -15.414398 34.403687 -34.429047 34.403687l0 0c-19.014648 0 -34.429047 -15.403046 -34.429047 -34.403687z" fill-rule="evenodd"/><path fill="#f8f9fa" d="m269.63702 217.15047l-1.640625 0l0 -10.453125q-0.59375 0.5625 -1.5625 1.140625q-0.953125 0.5625 -1.71875 0.84375l0 -1.59375q1.375 -0.640625 2.40625 -1.5625q1.03125 -0.921875 1.453125 -1.78125l1.0625 0l0 13.40625z" fill-rule="nonzero"/><path fill="#6c757d" d="m380.34882 343.653l0 0c0 -18.986633 15.414429 -34.378326 34.429047 -34.378326l0 0c9.131165 0 17.888336 3.6219788 24.345032 10.069183c6.4566956 6.447174 10.084015 15.191437 10.084015 24.309143l0 0c0 18.986633 -15.414398 34.378326 -34.429047 34.378326l0 0c-19.014618 0 -34.429047 -15.391693 -34.429047 -34.378326z" fill-rule="evenodd"/><path stroke="#6c757d" stroke-width="1.0" stroke-linejoin="round" stroke-linecap="butt" d="m380.34882 343.653l0 0c0 -18.986633 15.414429 -34.378326 34.429047 -34.378326l0 0c9.131165 0 17.888336 3.6219788 24.345032 10.069183c6.4566956 6.447174 10.084015 15.191437 10.084015 24.309143l0 0c0 18.986633 -15.414398 34.378326 -34.429047 34.378326l0 0c-19.014618 0 -34.429047 -15.391693 -34.429047 -34.378326z" fill-rule="evenodd"/><path fill="#f8f9fa" d="m405.4641 350.57303l0 -3.203125l-5.796875 0l0 -1.5l6.09375 -8.65625l1.34375 0l0 8.65625l1.796875 0l0 1.5l-1.796875 0l0 3.203125l-1.640625 0zm0 -4.703125l0 -6.015625l-4.1875 6.015625l4.1875 0z" fill-rule="nonzero"/><path fill="#6c757d" d="m581.4402 343.653l0 0c0 -18.986633 15.414429 -34.378326 34.429016 -34.378326l0 0c9.131165 0 17.888367 3.6219788 24.345032 10.069183c6.456726 6.447174 10.084045 15.191437 10.084045 24.309143l0 0c0 18.986633 -15.414429 34.378326 -34.429077 34.378326l0 0c-19.014587 0 -34.429016 -15.391693 -34.429016 -34.378326z" fill-rule="evenodd"/><path stroke="#6c757d" stroke-width="1.0" stroke-linejoin="round" stroke-linecap="butt" d="m581.4402 343.653l0 0c0 -18.986633 15.414429 -34.378326 34.429016 -34.378326l0 0c9.131165 0 17.888367 3.6219788 24.345032 10.069183c6.456726 6.447174 10.084045 15.191437 10.084045 24.309143l0 0c0 18.986633 -15.414429 34.378326 -34.429077 34.378326l0 0c-19.014587 0 -34.429016 -15.391693 -34.429016 -34.378326z" fill-rule="evenodd"/><path fill="#f8f9fa" d="m601.3055 347.07303l1.71875 -0.140625q0.1875 1.25 0.875 1.890625q0.703125 0.625 1.6875 0.625q1.1875 0 2.0 -0.890625q0.828125 -0.890625 0.828125 -2.359375q0 -1.40625 -0.796875 -2.21875q-0.78125 -0.8125 -2.0625 -0.8125q-0.78125 0 -1.421875 0.359375q-0.640625 0.359375 -1.0 0.9375l-1.546875 -0.203125l1.296875 -6.859375l6.640625 0l0 1.5625l-5.328125 0l-0.71875 3.59375q1.203125 -0.84375 2.515625 -0.84375q1.75 0 2.953125 1.21875q1.203125 1.203125 1.203125 3.109375q0 1.8125 -1.046875 3.140625q-1.296875 1.625 -3.515625 1.625q-1.8125 0 -2.96875 -1.015625q-1.15625 -1.03125 -1.3125 -2.71875z" fill-rule="nonzero"/><path fill="#6c757d" d="m713.3695 210.35667l0 0c0 -18.986633 15.414368 -34.37834 34.429016 -34.37834l0 0c9.131165 0 17.888306 3.621994 24.345032 10.069183c6.456665 6.4471893 10.083984 15.191452 10.083984 24.309158l0 0c0 18.986633 -15.414368 34.37834 -34.429016 34.37834l0 0c-19.014648 0 -34.429016 -15.391708 -34.429016 -34.37834z" fill-rule="evenodd"/><path stroke="#6c757d" stroke-width="1.0" stroke-linejoin="round" stroke-linecap="butt" d="m713.3695 210.35667l0 0c0 -18.986633 15.414368 -34.37834 34.429016 -34.37834l0 0c9.131165 0 17.888306 3.621994 24.345032 10.069183c6.456665 6.4471893 10.083984 15.191452 10.083984 24.309158l0 0c0 18.986633 -15.414368 34.37834 -34.429016 34.37834l0 0c-19.014648 0 -34.429016 -15.391708 -34.429016 -34.37834z" fill-rule="evenodd"/><path fill="#f8f9fa" d="m741.73474 207.19855l-1.625 0.125q-0.21875 -0.96875 -0.625 -1.40625q-0.65625 -0.703125 -1.640625 -0.703125q-0.78125 0 -1.375 0.4375q-0.765625 0.5625 -1.21875 1.65625q-0.453125 1.078125 -0.46875 3.078125q0.59375 -0.890625 1.453125 -1.328125q0.859375 -0.4375 1.796875 -0.4375q1.640625 0 2.78125 1.203125q1.15625 1.203125 1.15625 3.109375q0 1.265625 -0.546875 2.34375q-0.53125 1.078125 -1.484375 1.65625q-0.9375 0.578125 -2.140625 0.578125q-2.0625 0 -3.359375 -1.5q-1.28125 -1.515625 -1.28125 -4.984375q0 -3.875 1.421875 -5.625q1.25 -1.53125 3.375 -1.53125q1.5625 0 2.5625 0.890625q1.015625 0.875 1.21875 2.4375zm-6.6875 5.75q0 0.84375 0.359375 1.625q0.359375 0.765625 1.0 1.171875q0.640625 0.40625 1.359375 0.40625q1.03125 0 1.78125 -0.828125q0.75 -0.84375 0.75 -2.28125q0 -1.390625 -0.734375 -2.1875q-0.734375 -0.796875 -1.859375 -0.796875q-1.109375 0 -1.890625 0.796875q-0.765625 0.796875 -0.765625 2.09375z" fill-rule="nonzero"/><path fill="#6c757d" d="m899.1676 210.20695l0 0c0 -18.992294 15.413818 -34.38858 34.427673 -34.38858l0 0c9.130859 0 17.887634 3.6230621 24.344116 10.072174c6.456421 6.449112 10.083618 15.195984 10.083618 24.316406l0 0c0 18.99228 -15.413818 34.38858 -34.427734 34.38858l0 0c-19.013855 0 -34.427673 -15.396301 -34.427673 -34.38858z" fill-rule="evenodd"/><path stroke="#6c757d" stroke-width="1.0" stroke-linejoin="round" stroke-linecap="butt" d="m899.1676 210.20695l0 0c0 -18.992294 15.413818 -34.38858 34.427673 -34.38858l0 0c9.130859 0 17.887634 3.6230621 24.344116 10.072174c6.456421 6.449112 10.083618 15.195984 10.083618 24.316406l0 0c0 18.99228 -15.413818 34.38858 -34.427734 34.38858l0 0c-19.013855 0 -34.427673 -15.396301 -34.427673 -34.38858z" fill-rule="evenodd"/><path fill="#f8f9fa" d="m919.14185 205.51758l0 -1.578125l8.640625 0l0 1.28125q-1.28125 1.359375 -2.53125 3.609375q-1.25 2.25 -1.9375 4.625q-0.484375 1.671875 -0.625 3.671875l-1.6875 0q0.03125 -1.578125 0.625 -3.8125q0.59375 -2.234375 1.6875 -4.296875q1.109375 -2.078125 2.359375 -3.5l-6.53125 0z" fill-rule="nonzero"/><path fill="#000000" fill-opacity="0.0" d="m902.9059 210.20695l0 0c0 -16.949295 13.740112 -30.689423 30.689392 -30.689423l0 0c8.139343 0 15.9453125 3.2333527 21.700745 8.988724c5.755371 5.7553864 8.9887085 13.561356 8.9887085 21.700699l0 0c0 16.94928 -13.740112 30.689407 -30.689453 30.689407l0 0c-16.94928 0 -30.689392 -13.740128 -30.689392 -30.689407z" fill-rule="evenodd"/><path stroke="#f8f9fa" stroke-width="2.0" stroke-linejoin="round" stroke-linecap="butt" d="m902.9059 210.20695l0 0c0 -16.949295 13.740112 -30.689423 30.689392 -30.689423l0 0c8.139343 0 15.9453125 3.2333527 21.700745 8.988724c5.755371 5.7553864 8.9887085 13.561356 8.9887085 21.700699l0 0c0 16.94928 -13.740112 30.689407 -30.689453 30.689407l0 0c-16.94928 0 -30.689392 -13.740128 -30.689392 -30.689407z" fill-rule="evenodd"/><path fill="#000000" fill-opacity="0.0" d="m126.60579 210.35667l116.977615 -0.10140991" fill-rule="evenodd"/><path stroke="#6c757d" stroke-width="2.0" stroke-linejoin="round" stroke-linecap="butt" d="m126.60579 210.35667l104.9776 -0.09100342" fill-rule="evenodd"/><path fill="#6c757d" stroke="#6c757d" stroke-width="2.0" stroke-linecap="butt" d="m231.58626 213.56914l9.073334 -3.3113403l-9.079056 -3.2955933z" fill-rule="evenodd"/><path fill="#000000" fill-opacity="0.0" d="m153.70122 158.48805l49.74211 0l0 42.034866l-49.74211 0z" fill-rule="evenodd"/><path fill="#6c757d" d="m164.0606 185.40805l0 -13.359375l5.015625 0q1.53125 0 2.453125 0.40625q0.921875 0.40625 1.4375 1.25q0.53125 0.84375 0.53125 1.765625q0 0.859375 -0.46875 1.625q-0.453125 0.75 -1.390625 1.203125q1.203125 0.359375 1.859375 1.21875q0.65625 0.859375 0.65625 2.015625q0 0.9375 -0.40625 1.75q-0.390625 0.796875 -0.984375 1.234375q-0.578125 0.4375 -1.453125 0.671875q-0.875 0.21875 -2.15625 0.21875l-5.09375 0zm1.78125 -7.75l2.875 0q1.1875 0 1.6875 -0.140625q0.671875 -0.203125 1.015625 -0.671875q0.34375 -0.46875 0.34375 -1.171875q0 -0.65625 -0.328125 -1.15625q-0.3125 -0.515625 -0.90625 -0.703125q-0.59375 -0.1875 -2.03125 -0.1875l-2.65625 0l0 4.03125zm0 6.171875l3.3125 0q0.859375 0 1.203125 -0.0625q0.609375 -0.109375 1.015625 -0.359375q0.421875 -0.265625 0.6875 -0.75q0.265625 -0.484375 0.265625 -1.125q0 -0.75 -0.390625 -1.296875q-0.375 -0.546875 -1.0625 -0.765625q-0.671875 -0.234375 -1.953125 -0.234375l-3.078125 0l0 4.59375z" fill-rule="nonzero"/><path fill="#000000" fill-opacity="0.0" d="m302.3739 185.90338l88.07547 -84.830315" fill-rule="evenodd"/><path stroke="#6c757d" stroke-width="2.0" stroke-linejoin="round" stroke-linecap="butt" d="m302.3739 185.90338l79.432495 -76.50575" fill-rule="evenodd"/><path fill="#6c757d" stroke="#6c757d" stroke-width="2.0" stroke-linecap="butt" d="m384.09802 111.776955l4.2454834 -8.675606l-8.828796 3.916954z" fill-rule="evenodd"/><path fill="#000000" fill-opacity="0.0" d="m294.861 95.12977l49.742096 0l0 42.034874l-49.742096 0z" fill-rule="evenodd"/><path fill="#6c757d" d="m308.70474 122.04977l0 -11.78125l-4.40625 0l0 -1.578125l10.578125 0l0 1.578125l-4.40625 0l0 11.78125l-1.765625 0z" fill-rule="nonzero"/><path fill="#000000" fill-opacity="0.0" d="m302.3739 234.55756l88.07547 84.7796" fill-rule="evenodd"/><path stroke="#6c757d" stroke-width="2.0" stroke-linejoin="round" stroke-linecap="butt" d="m302.3739 234.55756l79.42999 76.45764" fill-rule="evenodd"/><path fill="#6c757d" stroke="#6c757d" stroke-width="2.0" stroke-linecap="butt" d="m379.51294 313.3952l8.829987 3.9143066l-4.2480774 -8.674316z" fill-rule="evenodd"/><path fill="#000000" fill-opacity="0.0" d="m294.861 263.30093l49.742096 0l0 42.03488l-49.742096 0z" fill-rule="evenodd"/><path fill="#6c757d" d="m305.2985 290.22095l0 -13.359375l5.046875 0q1.328125 0 2.03125 0.125q0.96875 0.171875 1.640625 0.640625q0.671875 0.453125 1.078125 1.28125q0.40625 0.828125 0.40625 1.828125q0 1.703125 -1.09375 2.890625q-1.078125 1.171875 -3.921875 1.171875l-3.421875 0l0 5.421875l-1.765625 0zm1.765625 -7.0l3.453125 0q1.71875 0 2.4375 -0.640625q0.71875 -0.640625 0.71875 -1.796875q0 -0.84375 -0.421875 -1.4375q-0.421875 -0.59375 -1.125 -0.78125q-0.4375 -0.125 -1.640625 -0.125l-3.421875 0l0 4.78125z" fill-rule="nonzero"/><path fill="#000000" fill-opacity="0.0" d="m449.22803 76.76033l132.18927 0" fill-rule="evenodd"/><path stroke="#6c757d" stroke-width="2.0" stroke-linejoin="round" stroke-linecap="butt" d="m449.22803 76.76033l120.18927 0" fill-rule="evenodd"/><path fill="#6c757d" stroke="#6c757d" stroke-width="2.0" stroke-linecap="butt" d="m569.4173 80.0638l9.076172 -3.3034668l-9.076172 -3.3034668z" fill-rule="evenodd"/><path fill="#000000" fill-opacity="0.0" d="m484.95505 24.43535l49.742096 0l0 42.034874l-49.742096 0z" fill-rule="evenodd"/><path fill="#6c757d" d="m494.03317 51.355347l5.171875 -6.953125l-4.5625 -6.40625l2.109375 0l2.421875 3.4375q0.75 1.0625 1.078125 1.625q0.4375 -0.71875 1.046875 -1.515625l2.6875 -3.546875l1.921875 0l-4.6875 6.296875l5.0625 7.0625l-2.1875 0l-3.359375 -4.765625q-0.28125 -0.40625 -0.59375 -0.890625q-0.4375 0.734375 -0.625 1.0l-3.359375 4.65625l-2.125 0z" fill-rule="nonzero"/><path fill="#000000" fill-opacity="0.0" d="m449.2069 343.653l132.23999 0" fill-rule="evenodd"/><path stroke="#6c757d" stroke-width="2.0" stroke-linejoin="round" stroke-linecap="butt" d="m449.2069 343.653l120.23999 0" fill-rule="evenodd"/><path fill="#6c757d" stroke="#6c757d" stroke-width="2.0" stroke-linecap="butt" d="m569.4469 346.95648l9.076172 -3.3034668l-9.076172 -3.3034668z" fill-rule="evenodd"/><path fill="#000000" fill-opacity="0.0" d="m484.95505 289.45615l49.742096 0l0 42.03488l-49.742096 0z" fill-rule="evenodd"/><path fill="#6c757d" d="m499.20505 316.37616l-5.171875 -13.359375l1.921875 0l3.46875 9.703125q0.421875 1.171875 0.703125 2.1875q0.3125 -1.09375 0.71875 -2.1875l3.609375 -9.703125l1.796875 0l-5.234375 13.359375l-1.8125 0z" fill-rule="nonzero"/><path fill="#000000" fill-opacity="0.0" d="m815.8434 158.48805l49.742126 0l0 42.034866l-49.742126 0z" fill-rule="evenodd"/><path fill="#6c757d" d="m826.31213 185.40805l0 -13.359375l9.65625 0l0 1.578125l-7.875 0l0 4.09375l7.375 0l0 1.5625l-7.375 0l0 4.546875l8.1875 0l0 1.578125l-9.96875 0z" fill-rule="nonzero"/><path fill="#000000" fill-opacity="0.0" d="m640.21423 101.06949l83.258484 84.98244" fill-rule="evenodd"/><path stroke="#6c757d" stroke-width="2.0" stroke-linejoin="round" stroke-linecap="butt" d="m640.21423 101.06948l74.860596 76.41065" fill-rule="evenodd"/><path fill="#6c757d" stroke="#6c757d" stroke-width="2.0" stroke-linecap="butt" d="m712.7151 179.79198l8.711426 4.171417l-3.9920044 -8.795105z" fill-rule="evenodd"/><path fill="#000000" fill-opacity="0.0" d="m675.04987 95.12977l49.742065 0l0 42.034874l-49.742065 0z" fill-rule="evenodd"/><path fill="#6c757d" d="m684.8936 117.75289l1.65625 -0.140625q0.125 1.0 0.546875 1.640625q0.4375 0.640625 1.34375 1.046875q0.921875 0.390625 2.0625 0.390625q1.0 0 1.78125 -0.296875q0.78125 -0.296875 1.15625 -0.8125q0.375 -0.53125 0.375 -1.15625q0 -0.625 -0.375 -1.09375q-0.359375 -0.46875 -1.1875 -0.796875q-0.546875 -0.203125 -2.390625 -0.640625q-1.828125 -0.453125 -2.5625 -0.84375q-0.96875 -0.5 -1.4375 -1.234375q-0.46875 -0.75 -0.46875 -1.671875q0 -1.0 0.578125 -1.875q0.578125 -0.890625 1.671875 -1.34375q1.109375 -0.453125 2.453125 -0.453125q1.484375 0 2.609375 0.484375q1.140625 0.46875 1.75 1.40625q0.609375 0.921875 0.65625 2.09375l-1.6875 0.125q-0.140625 -1.265625 -0.9375 -1.90625q-0.78125 -0.65625 -2.3125 -0.65625q-1.609375 0 -2.34375 0.59375q-0.734375 0.59375 -0.734375 1.421875q0 0.71875 0.53125 1.171875q0.5 0.46875 2.65625 0.96875q2.15625 0.484375 2.953125 0.84375q1.171875 0.53125 1.71875 1.359375q0.5625 0.828125 0.5625 1.90625q0 1.0625 -0.609375 2.015625q-0.609375 0.9375 -1.75 1.46875q-1.140625 0.515625 -2.578125 0.515625q-1.8125 0 -3.046875 -0.53125q-1.21875 -0.53125 -1.921875 -1.59375q-0.6875 -1.0625 -0.71875 -2.40625z" fill-rule="nonzero"/><path fill="#000000" fill-opacity="0.0" d="m640.21423 319.34387l83.258484 -84.67822" fill-rule="evenodd"/><path stroke="#6c757d" stroke-width="2.0" stroke-linejoin="round" stroke-linecap="butt" d="m640.21423 319.34384l74.845215 -76.12146" fill-rule="evenodd"/><path fill="#6c757d" stroke="#6c757d" stroke-width="2.0" stroke-linecap="butt" d="m717.415 245.53844l4.0078125 -8.787933l-8.718933 4.155792z" fill-rule="evenodd"/><path fill="#000000" fill-opacity="0.0" d="m675.04987 263.30093l49.742065 0l0 42.03488l-49.742065 0z" fill-rule="evenodd"/><path fill="#6c757d" d="m689.29987 290.22095l-5.171875 -13.359375l1.921875 0l3.46875 9.703125q0.421875 1.171875 0.703125 2.1875q0.3125 -1.09375 0.71875 -2.1875l3.609375 -9.703125l1.796875 0l-5.234375 13.359375l-1.8125 0z" fill-rule="nonzero"/><path fill="#000000" fill-opacity="0.0" d="m782.22754 210.35667l116.92694 -0.15211487" fill-rule="evenodd"/><path stroke="#6c757d" stroke-width="2.0" stroke-linejoin="round" stroke-linecap="butt" d="m782.2276 210.35667l104.92682 -0.13650513" fill-rule="evenodd"/><path fill="#6c757d" stroke="#6c757d" stroke-width="2.0" stroke-linecap="butt" d="m887.15875 213.52364l9.071899 -3.315277l-9.080505 -3.2916565z" fill-rule="evenodd"/><path fill="#000000" fill-opacity="0.0" d="m591.52423 101.06949l-152.42078 218.28723" fill-rule="evenodd"/><path stroke="#6c757d" stroke-width="2.0" stroke-linejoin="round" stroke-linecap="butt" d="m591.52423 101.06948l-145.55072 208.4484" fill-rule="evenodd"/><path fill="#6c757d" stroke="#6c757d" stroke-width="2.0" stroke-linecap="butt" d="m443.26498 307.62665l-2.4876404 9.332825l7.9046936 -5.550354z" fill-rule="evenodd"/><path fill="#000000" fill-opacity="0.0" d="m474.68295 158.48805l49.742096 0l0 42.034866l-49.742096 0z" fill-rule="evenodd"/><path fill="#6c757d" d="m483.76108 185.40805l5.171875 -6.953125l-4.5625 -6.40625l2.109375 0l2.421875 3.4375q0.75 1.0625 1.078125 1.625q0.4375 -0.71875 1.046875 -1.515625l2.6875 -3.546875l1.921875 0l-4.6875 6.296875l5.0625 7.0625l-2.1875 0l-3.359375 -4.765625q-0.28125 -0.40625 -0.59375 -0.890625q-0.4375 0.734375 -0.625 1.0l-3.359375 4.65625l-2.125 0z" fill-rule="nonzero"/><path fill="#000000" fill-opacity="0.0" d="m615.8692 309.2747l0 -198.15715" fill-rule="evenodd"/><path stroke="#6c757d" stroke-width="2.0" stroke-linejoin="round" stroke-linecap="butt" d="m615.8692 309.2747l0 -186.15715" fill-rule="evenodd"/><path fill="#6c757d" stroke="#6c757d" stroke-width="2.0" stroke-linecap="butt" d="m619.17267 123.11754l-3.3034668 -9.076195l-3.3034668 9.076195z" fill-rule="evenodd"/><path fill="#000000" fill-opacity="0.0" d="m611.26776 158.48805l49.742126 0l0 42.034866l-49.742126 0z" fill-rule="evenodd"/><path fill="#6c757d" d="m621.70526 185.40805l0 -13.359375l5.046875 0q1.328125 0 2.03125 0.125q0.96875 0.171875 1.640625 0.640625q0.671875 0.453125 1.078125 1.28125q0.40625 0.828125 0.40625 1.828125q0 1.703125 -1.09375 2.890625q-1.078125 1.171875 -3.921875 1.171875l-3.421875 0l0 5.421875l-1.765625 0zm1.765625 -7.0l3.453125 0q1.71875 0 2.4375 -0.640625q0.71875 -0.640625 0.71875 -1.796875q0 -0.84375 -0.421875 -1.4375q-0.421875 -0.59375 -1.125 -0.78125q-0.4375 -0.125 -1.640625 -0.125l-3.421875 0l0 4.78125z" fill-rule="nonzero"/><path fill="#000000" fill-opacity="0.0" d="m346.31274 42.381992l0 0c0 -18.986631 15.414398 -34.378338 34.429047 -34.378338l0 0c9.131134 0 17.888306 3.621993 24.345001 10.069182c6.4566956 6.4471893 10.084045 15.191452 10.084045 24.309155l0 0c0 18.986633 -15.414429 34.378338 -34.429047 34.378338l0 0c-19.014648 0 -34.429047 -15.391705 -34.429047 -34.378338z" fill-rule="evenodd"/><path stroke="#6c757d" stroke-width="2.0" stroke-linejoin="round" stroke-linecap="butt" d="m346.31274 42.381992l0 0c0 -18.986631 15.414398 -34.378338 34.429047 -34.378338l0 0c9.131134 0 17.888306 3.621993 24.345001 10.069182c6.4566956 6.4471893 10.084045 15.191452 10.084045 24.309155l0 0c0 18.986633 -15.414429 34.378338 -34.429047 34.378338l0 0c-19.014648 0 -34.429047 -15.391705 -34.429047 -34.378338z" fill-rule="evenodd"/><path fill="#6c757d" d="m362.46106 43.005116l1.65625 -0.140625q0.125 1.0 0.546875 1.640625q0.4375 0.640625 1.34375 1.046875q0.921875 0.390625 2.0625 0.390625q1.0 0 1.78125 -0.296875q0.78125 -0.296875 1.15625 -0.8125q0.375 -0.53125 0.375 -1.15625q0 -0.625 -0.375 -1.09375q-0.359375 -0.46875 -1.1875 -0.796875q-0.546875 -0.203125 -2.390625 -0.640625q-1.828125 -0.453125 -2.5625 -0.84375q-0.96875 -0.5 -1.4375 -1.234375q-0.46875 -0.75 -0.46875 -1.671875q0 -1.0 0.578125 -1.875q0.578125 -0.890625 1.671875 -1.34375q1.109375 -0.453125 2.453125 -0.453125q1.484375 0 2.609375 0.484375q1.140625 0.46875 1.75 1.40625q0.609375 0.921875 0.65625 2.09375l-1.6875 0.125q-0.140625 -1.265625 -0.9375 -1.90625q-0.78125 -0.65625 -2.3125 -0.65625q-1.609375 0 -2.34375 0.59375q-0.734375 0.59375 -0.734375 1.421875q0 0.71875 0.53125 1.171875q0.5 0.46875 2.65625 0.96875q2.15625 0.484375 2.953125 0.84375q1.171875 0.53125 1.71875 1.359375q0.5625 0.828125 0.5625 1.90625q0 1.0625 -0.609375 2.015625q-0.609375 0.9375 -1.75 1.46875q-1.140625 0.515625 -2.578125 0.515625q-1.8125 0 -3.046875 -0.53125q-1.21875 -0.53125 -1.921875 -1.59375q-0.6875 -1.0625 -0.71875 -2.40625z" fill-rule="nonzero"/><path fill="#000000" fill-opacity="0.0" d="m361.31494 70.771736l19.065277 6.0339584" fill-rule="evenodd"/><path stroke="#6c757d" stroke-width="2.0" stroke-linejoin="round" stroke-linecap="butt" d="m361.31497 70.771736l7.624542 2.4130936" fill-rule="evenodd"/><path fill="#6c757d" stroke="#6c757d" stroke-width="2.0" stroke-linecap="butt" d="m367.94275 76.33432l9.649933 -0.41085052l-7.656372 -5.88813z" fill-rule="evenodd"/><path fill="#000000" fill-opacity="0.0" d="m346.31274 378.03134l0 0c0 -18.986633 15.414398 -34.378326 34.429047 -34.378326l0 0c9.131134 0 17.888306 3.6220093 24.345001 10.069183c6.4566956 6.447174 10.084045 15.191467 10.084045 24.309143l0 0c0 18.986633 -15.414429 34.378357 -34.429047 34.378357l0 0c-19.014648 0 -34.429047 -15.391724 -34.429047 -34.378357z" fill-rule="evenodd"/><path stroke="#6c757d" stroke-width="2.0" stroke-linejoin="round" stroke-linecap="butt" d="m346.31274 378.03134l0 0c0 -18.986633 15.414398 -34.378326 34.429047 -34.378326l0 0c9.131134 0 17.888306 3.6220093 24.345001 10.069183c6.4566956 6.447174 10.084045 15.191467 10.084045 24.309143l0 0c0 18.986633 -15.414429 34.378357 -34.429047 34.378357l0 0c-19.014648 0 -34.429047 -15.391724 -34.429047 -34.378357z" fill-rule="evenodd"/><path fill="#6c757d" d="m366.46106 386.95135l0 -11.78125l-4.40625 0l0 -1.578125l10.578125 0l0 1.578125l-4.40625 0l0 11.78125l-1.765625 0z" fill-rule="nonzero"/><path fill="#000000" fill-opacity="0.0" d="m361.52438 349.68698l19.217407 -6.033966" fill-rule="evenodd"/><path stroke="#6c757d" stroke-width="2.0" stroke-linejoin="round" stroke-linecap="butt" d="m361.5244 349.68698l7.7684937 -2.439209" fill-rule="evenodd"/><path fill="#6c757d" stroke="#6c757d" stroke-width="2.0" stroke-linecap="butt" d="m370.2825 350.39954l7.6697693 -5.8706665l-9.648987 -0.4328308z" fill-rule="evenodd"/></g></svg>